# xmcd
#
# Track frame offsets:
#	182
#	20050
#	39727
#	55782
#	73042
#	89975
#	105372
#	120550
#	136080
#	150947
#
# Disc length: 2235 seconds
#
# Revision: 2
# Processed by: cddbd v1.5PL3 Copyright (c) Steve Scherf et al.
# Submitted via: audiograbber 1.82.02
#
DISCID=8008b90a
DTITLE=Bill LaBounty - This Night Won't Last Forever
DYEAR=1978
DGENRE=Pop
TTITLE0=This Night Won't Last Forever
TTITLE1=Room 205
TTITLE2=In 25 Words Or Less
TTITLE3=Open Your Eyes
TTITLE4=Little Girl In Blue Jeans
TTITLE5=Lie To Me
TTITLE6=Who's Gonna Hold You
TTITLE7=Crazy
TTITLE8=A Tear Can Tell
TTITLE9=I Hope You'll Be Very Unhappy Without Me
EXTD=
EXTT0=
EXTT1=
EXTT2=
EXTT3=
EXTT4=
EXTT5=
EXTT6=
EXTT7=
EXTT8=
EXTT9=
PLAYORDER=
